<svg width="142" height="34" viewBox="0 0 142 34" fill="none" xmlns="http://www.w3.org/2000/svg">
<path d="M38.08 0.199998V7.6H36.28V2H22.76V26.2H26.76V28H12.12V26.2H16.08V2H2.56V7.6H0.76V0.199998H38.08ZM39.5875 9.24H64.5475V19.52H46.2675V26.2H62.7475V23.12H64.5475V28H39.5875V9.24ZM46.2675 11.04V17.72H62.7475V11.04H46.2675ZM78.1978 26.2H82.1578V28H67.5578V26.2H71.5178V2H67.5578V0.199998H78.1978V26.2ZM85.3688 9.24H110.329V19.52H92.0488V26.2H108.529V23.12H110.329V28H85.3688V9.24ZM92.0488 11.04V17.72H108.529V11.04H92.0488ZM139.699 9.24V14.12H137.899V11.04H121.419V17.72H139.699V28H114.739V23.12H116.539V26.2H133.019V19.52H114.739V9.24H139.699Z" fill="white"/>
<path d="M0 32H141.899V34H0V32Z" fill="white"/>
</svg>
